<svg id="Layer_5" enable-background="new 0 0 64 64" height="512" viewBox="0 0 64 64" width="512" xmlns="http://www.w3.org/2000/svg" xmlns:xlink="http://www.w3.org/1999/xlink"><linearGradient id="SVGID_1_" gradientUnits="userSpaceOnUse" x1="32" x2="32" y1="63" y2="1"><stop offset="0" stop-color="#9f2fff"/><stop offset="1" stop-color="#0bb1d3"/></linearGradient><path d="m44.121 2.707c-1.1-1.101-2.564-1.707-4.121-1.707s-3.021.606-4.121 1.707l-6.515 6.515c-2.481-4.871-7.533-8.222-13.364-8.222-8.271 0-15 6.729-15 15 0 5.831 3.351 10.883 8.222 13.364l-6.515 6.515c-1.101 1.1-1.707 2.564-1.707 4.121s.606 3.021 1.707 4.121l17.172 17.172c1.1 1.101 2.564 1.707 4.121 1.707 1.534 0 3.036-.622 4.121-1.707l33.172-33.172c1.101-1.1 1.707-2.564 1.707-4.121s-.606-3.021-1.707-4.121zm2.293 6.293.586-.586 8.586 8.586-.586.586c-.53.531-1.47.529-1.998.002l-6.59-6.59c-.266-.266-.412-.62-.412-.998 0-.372.151-.737.414-1zm-9.414 1.414 16.586 16.586-25.586 25.586-16.586-16.586 5.022-5.022c7.922-.229 14.312-6.62 14.542-14.542zm-34 5.586c0-7.168 5.832-13 13-13s13 5.832 13 13-5.832 13-13 13-13-5.832-13-13zm18.293 43.879-17.172-17.172c-.723-.723-1.121-1.685-1.121-2.707 0-.964.365-1.867 1.012-2.574l22.562 22.562c-.701.638-1.624 1.012-2.574 1.012-1.022 0-1.984-.398-2.707-1.121zm38.586-33.172-31.879 31.879-22.586-22.586 5.798-5.798c.823.278 1.679.481 2.559.613l-5.185 5.185 19.414 19.414 28.414-28.414-19.414-19.414-6.184 6.184c-.132-.88-.335-1.735-.613-2.559l7.091-7.091c1.446-1.446 3.968-1.446 5.414 0l2.878 2.88-.586.586c-.645.644-1 1.502-1 2.414s.354 1.769.998 2.412l6.59 6.59c.643.644 1.5.998 2.412.998s1.77-.355 2.414-1l.586-.586 2.879 2.879c.723.723 1.121 1.685 1.121 2.707s-.398 1.984-1.121 2.707zm-29.293 10.293 4.414 4.414 4.414-4.414-4.414-4.414zm4.414 1.586-1.586-1.586 1.586-1.586 1.586 1.586zm-10.414 4.414 4.414 4.414 4.414-4.414-4.414-4.414zm4.414 1.586-1.586-1.586 1.586-1.586 1.586 1.586zm0-9.172 4.414-4.414-4.414-4.414-4.414 4.414zm1.586-4.414-1.586 1.586-1.586-1.586 1.586-1.586zm-7.586 1.586-4.414 4.414 4.414 4.414 4.414-4.414zm-1.586 4.414 1.586-1.586 1.586 1.586-1.586 1.586zm1.32-17.071c1.461-1.644 2.266-3.76 2.266-5.959 0-4.946-4.024-8.97-9.03-8.97-4.946 0-8.97 4.024-8.97 8.97 0 2.199.805 4.315 2.266 5.959l6.734 7.576zm-13.734-5.959c0-3.844 3.126-6.97 7.03-6.97 3.844 0 6.97 3.126 6.97 6.97 0 1.709-.625 3.354-1.761 4.63l-5.239 5.895-5.239-5.895c-1.136-1.277-1.761-2.921-1.761-4.63zm12 .03c0-2.757-2.243-5-5-5s-5 2.243-5 5 2.243 5 5 5 5-2.243 5-5zm-8 0c0-1.654 1.346-3 3-3s3 1.346 3 3-1.346 3-3 3-3-1.346-3-3zm35.293 15.707-14-14 1.414-1.414 14 14zm-3 3-14-14 1.414-1.414 14 14zm-3 3-11-11 1.414-1.414 11 11z" fill="url(#SVGID_1_)"/></svg>