<svg height="496pt" viewBox="0 0 496 496" width="496pt" xmlns="http://www.w3.org/2000/svg" xmlns:xlink="http://www.w3.org/1999/xlink"><linearGradient id="a" gradientUnits="userSpaceOnUse" x1="248" x2="248" y1="496" y2="0"><stop offset="0" stop-color="#9f2fff"/><stop offset="1" stop-color="#0bb1d3"/></linearGradient><path d="m467.496094 385.496094-.777344-.230469c12.050781-5.058594 18.503906-11.167969 18.945312-11.609375l6.894532-6.894531-8.117188-5.417969c-12.800781-8.527344-20.441406-22.808594-20.441406-38.183594v-51.160156c0-44.113281-35.886719-80-80-80s-80 35.886719-80 80v51.160156c0 15.375-7.640625 29.65625-20.441406 38.183594l-8.117188 5.417969 6.894532 6.894531c.441406.441406 6.894531 6.550781 18.945312 11.609375l-.777344.230469c-17.046875 5.113281-28.503906 20.503906-28.503906 38.3125v72.191406h224v-72.191406c0-17.808594-11.457031-33.199219-28.503906-38.3125zm-139.496094-87.265625v21.769531c0 2.015625.121094 4 .328125 5.953125-4.9375-2.722656-8.328125-7.921875-8.328125-13.945313 0-5.894531 3.238281-11 8-13.777343zm16-2.230469h1.375c14.183594 0 27.648438-4.679688 38.625-13.320312 10.976562 8.640624 24.441406 13.320312 38.625 13.320312h1.375v24c0 22.054688-17.945312 40-40 40s-40-17.945312-40-40zm12.34375 89.449219 17.089844 28.480469-16.929688 12.695312-10.847656-37.96875zm27.65625 15.007812-16-26.664062v-.144531c5.070312 1.511718 10.441406 2.351562 16 2.351562s10.929688-.839844 16-2.359375v.144531zm27.65625-15.007812 10.6875 3.207031-10.847656 37.96875-16.929688-12.695312zm55.167969-17.832031c-6.359375 3.574218-16.816407 7.679687-31.367188 8.269531l-19.457031-5.839844v-4.160156c8.007812-5.597657 14.457031-13.238281 18.648438-22.160157 5.640624-.46875 10.902343-2.261718 15.335937-5.285156 2.816406 11.070313 8.582031 21.191406 16.839844 29.175782zm-27.152344-41.664063c.207031-1.960937.328125-3.945313.328125-5.953125v-21.777344c4.761719 2.777344 8 7.882813 8 13.777344 0 6.03125-3.390625 11.222656-8.328125 13.953125zm-55.671875-117.953125c35.289062 0 64 28.710938 64 64v12.449219c-4.726562-2.753907-10.144531-4.449219-16-4.449219h-9.375c-12.457031 0-24.167969-4.847656-32.96875-13.65625l-5.65625-5.664062-5.65625 5.664062c-8.808594 8.808594-20.511719 13.65625-32.96875 13.65625h-9.375c-5.855469 0-11.273438 1.695312-16 4.457031v-12.457031c0-35.289062 28.710938-64 64-64zm-82.824219 159.617188c8.257813-7.984376 14.015625-18.105469 16.832031-29.175782 4.433594 3.023438 9.695313 4.816406 15.335938 5.285156 4.191406 8.921876 10.640625 16.5625 18.648438 22.160157v4.160156l-19.449219 5.832031c-14.558594-.582031-25.007813-4.695312-31.367188-8.261718zm-13.175781 56.191406c0-10.679688 6.871094-19.921875 17.105469-22.984375l25.222656-7.566407 17.175781 60.117188 28.496094-21.375v48h-40v-32h-16v32h-32zm192 56.191406h-32v-32h-16v32h-40v-48l28.496094 21.375 17.175781-60.117188 25.222656 7.566407c10.234375 3.0625 17.105469 12.304687 17.105469 22.984375zm-256-88.191406c0-17.808594-11.457031-33.199219-28.503906-38.3125l-51.496094-15.449219v-4.160156c8.007812-5.597657 14.457031-13.238281 18.648438-22.160157 16.390624-1.367187 29.351562-14.992187 29.351562-31.726562v-40c0-44.113281-35.886719-80-80-80s-80 35.886719-80 80v40 .007812c0 16.734376 12.960938 30.351563 29.351562 31.726563 4.191407 8.921875 10.640626 16.5625 18.648438 22.160156v4.160157l-51.496094 15.449218c-17.046875 5.105469-28.503906 20.496094-28.503906 38.304688v72.191406h224zm-73.65625-35.152344-10.847656 37.96875-16.929688-12.695312 17.089844-28.480469zm-38.34375 11.800781-16-26.664062v-.144531c5.070312 1.511718 10.441406 2.351562 16 2.351562s10.929688-.839844 16-2.359375v.144531zm55.671875-74.503906c.207031-1.960937.328125-3.945313.328125-5.953125v-21.777344c4.761719 2.777344 8 7.882813 8 13.777344 0 6.03125-3.390625 11.222656-8.328125 13.953125zm-55.671875-117.953125c35.289062 0 64 28.710938 64 64v12.449219c-4.726562-2.753907-10.144531-4.449219-16-4.449219h-96c-5.855469 0-11.273438 1.695312-16 4.457031v-12.457031c0-35.289062 28.710938-64 64-64zm-64 104.007812c0-5.894531 3.238281-11 8-13.777343v21.769531c0 2.015625.121094 4 .328125 5.953125-4.9375-2.722656-8.328125-7.921875-8.328125-13.945313zm24 7.992188v-24h80v24c0 22.054688-17.945312 40-40 40s-40-17.945312-40-40zm12.34375 65.449219 17.089844 28.480469-16.929688 12.695312-10.847656-37.96875zm123.65625 94.550781h-32v-32h-16v32h-96v-32h-16v32h-32v-56.191406c0-10.679688 6.871094-19.921875 17.105469-22.984375l25.222656-7.566407 17.175781 60.117188 36.496094-27.375 36.496094 27.375 17.175781-60.117188 25.222656 7.566407c10.234375 3.0625 17.105469 12.304687 17.105469 22.984375zm-104-304h120v8c0 13.230469 10.769531 24 24 24h160c13.230469 0 24-10.769531 24-24v-96c0-13.230469-10.769531-24-24-24h-120v-8c0-13.230469-10.769531-24-24-24h-160c-13.230469 0-24 10.769531-24 24v96c0 13.230469 10.769531 24 24 24zm312-88v96c0 4.40625-3.585938 8-8 8h-160c-4.414062 0-8-3.59375-8-8v-96c0-4.40625 3.585938-8 8-8h160c4.414062 0 8 3.59375 8 8zm-320-32c0-4.40625 3.585938-8 8-8h160c4.414062 0 8 3.59375 8 8v8h-24c-13.230469 0-24 10.769531-24 24v72h-120c-4.414062 0-8-3.59375-8-8zm80 88h-64v-16h64zm16-16h16v16h-16zm16-48h-96v-16h96zm0 32h-96v-16h96zm160 64h-112v-16h112zm16-16h16v16h-16zm16-48h-144v-16h144zm0 32h-144v-16h144zm64-32h-16v-16h16zm0 32h-16v-16h16zm0 32h-16v-16h16zm-400-96h-16v-16h16zm0 32h-16v-16h16zm0 32h-16v-16h16zm0 0" fill="url(#a)"/></svg>